<mxfile host="app.diagrams.net" modified="2022-03-22T00:24:59.812Z" agent="5.0 (Macintosh; Intel Mac OS X 10_15_7) AppleWebKit/605.1.15 (KHTML, like Gecko) Version/15.4 Safari/605.1.15" etag="ZyqgFFzUWkzDBEHbBqpc" version="17.1.3" type="github">
  <diagram id="n98J2gPWxore46XGjhOp" name="Page-1">
    <mxGraphModel dx="958" dy="590" grid="1" gridSize="10" guides="1" tooltips="1" connect="1" arrows="1" fold="1" page="1" pageScale="1" pageWidth="850" pageHeight="1100" math="0" shadow="0">
      <root>
        <mxCell id="0" />
        <mxCell id="1" parent="0" />
        <mxCell id="PGMpMzwGWHUyb1UQOjFQ-31" value="Main Thread" style="rounded=1;whiteSpace=wrap;html=1;fontSize=7;fillColor=default;dashed=1;verticalAlign=top;" vertex="1" parent="1">
          <mxGeometry x="260" y="100" width="100" height="168" as="geometry" />
        </mxCell>
        <mxCell id="PGMpMzwGWHUyb1UQOjFQ-30" value="Task N" style="rounded=1;whiteSpace=wrap;html=1;fontSize=7;fillColor=default;dashed=1;arcSize=18;verticalAlign=top;" vertex="1" parent="1">
          <mxGeometry x="608.5" y="363" width="140" height="192" as="geometry" />
        </mxCell>
        <mxCell id="PGMpMzwGWHUyb1UQOjFQ-29" value="Task 2" style="rounded=1;whiteSpace=wrap;html=1;fontSize=7;fillColor=default;dashed=1;arcSize=18;verticalAlign=top;" vertex="1" parent="1">
          <mxGeometry x="589" y="382" width="140" height="192" as="geometry" />
        </mxCell>
        <mxCell id="Zxzv2EEOAIbLJabRrcN6-10" value="Task 1" style="rounded=1;whiteSpace=wrap;html=1;fontSize=7;fillColor=default;dashed=1;arcSize=18;verticalAlign=top;" parent="1" vertex="1">
          <mxGeometry x="565" y="400" width="140" height="192" as="geometry" />
        </mxCell>
        <mxCell id="Zxzv2EEOAIbLJabRrcN6-11" value="&amp;nbsp; &amp;nbsp; &amp;nbsp; &amp;nbsp; &amp;nbsp; &amp;nbsp; &amp;nbsp; &amp;nbsp; Receiver Thread" style="rounded=1;whiteSpace=wrap;html=1;fontSize=7;fillColor=default;dashed=1;verticalAlign=top;align=left;" parent="1" vertex="1">
          <mxGeometry x="150" y="282" width="370" height="310" as="geometry" />
        </mxCell>
        <mxCell id="L62SuwqkSCq3n70ToQN--156" style="edgeStyle=orthogonalEdgeStyle;curved=1;rounded=0;orthogonalLoop=1;jettySize=auto;html=1;fontSize=7;" parent="1" source="L62SuwqkSCq3n70ToQN--78" target="L62SuwqkSCq3n70ToQN--80" edge="1">
          <mxGeometry relative="1" as="geometry" />
        </mxCell>
        <mxCell id="L62SuwqkSCq3n70ToQN--78" value="s1" style="ellipse;whiteSpace=wrap;html=1;" parent="1" vertex="1">
          <mxGeometry x="280" y="238" width="60" height="30" as="geometry" />
        </mxCell>
        <mxCell id="L62SuwqkSCq3n70ToQN--155" style="edgeStyle=orthogonalEdgeStyle;curved=1;rounded=0;orthogonalLoop=1;jettySize=auto;html=1;fontSize=7;" parent="1" target="L62SuwqkSCq3n70ToQN--78" edge="1">
          <mxGeometry relative="1" as="geometry">
            <mxPoint x="310" y="220" as="sourcePoint" />
          </mxGeometry>
        </mxCell>
        <mxCell id="L62SuwqkSCq3n70ToQN--137" value="" style="edgeStyle=orthogonalEdgeStyle;curved=1;rounded=0;orthogonalLoop=1;jettySize=auto;html=1;fontSize=7;" parent="1" source="L62SuwqkSCq3n70ToQN--80" edge="1">
          <mxGeometry relative="1" as="geometry">
            <mxPoint x="310" y="382" as="targetPoint" />
          </mxGeometry>
        </mxCell>
        <mxCell id="qoWVHKTnKnU8L6EQ_5EU-40" style="edgeStyle=orthogonalEdgeStyle;curved=1;rounded=0;orthogonalLoop=1;jettySize=auto;html=1;entryX=0.5;entryY=0;entryDx=0;entryDy=0;fontSize=7;endArrow=none;endFill=0;" parent="1" source="L62SuwqkSCq3n70ToQN--80" target="L62SuwqkSCq3n70ToQN--127" edge="1">
          <mxGeometry relative="1" as="geometry" />
        </mxCell>
        <mxCell id="qoWVHKTnKnU8L6EQ_5EU-44" style="edgeStyle=orthogonalEdgeStyle;curved=1;rounded=0;orthogonalLoop=1;jettySize=auto;html=1;entryX=0.5;entryY=0;entryDx=0;entryDy=0;fontSize=7;endArrow=none;endFill=0;startArrow=classic;startFill=1;" parent="1" source="L62SuwqkSCq3n70ToQN--80" target="L62SuwqkSCq3n70ToQN--126" edge="1">
          <mxGeometry relative="1" as="geometry" />
        </mxCell>
        <mxCell id="L62SuwqkSCq3n70ToQN--80" value="r1" style="ellipse;whiteSpace=wrap;html=1;" parent="1" vertex="1">
          <mxGeometry x="280" y="292" width="60" height="30" as="geometry" />
        </mxCell>
        <mxCell id="L62SuwqkSCq3n70ToQN--140" style="edgeStyle=orthogonalEdgeStyle;curved=1;rounded=0;orthogonalLoop=1;jettySize=auto;html=1;entryX=1;entryY=0.5;entryDx=0;entryDy=0;fontSize=7;" parent="1" source="L62SuwqkSCq3n70ToQN--81" target="L62SuwqkSCq3n70ToQN--138" edge="1">
          <mxGeometry relative="1" as="geometry" />
        </mxCell>
        <mxCell id="L62SuwqkSCq3n70ToQN--144" style="edgeStyle=orthogonalEdgeStyle;curved=1;rounded=0;orthogonalLoop=1;jettySize=auto;html=1;entryX=0.5;entryY=0;entryDx=0;entryDy=0;fontSize=7;" parent="1" source="L62SuwqkSCq3n70ToQN--81" target="L62SuwqkSCq3n70ToQN--99" edge="1">
          <mxGeometry relative="1" as="geometry" />
        </mxCell>
        <mxCell id="qoWVHKTnKnU8L6EQ_5EU-14" style="edgeStyle=orthogonalEdgeStyle;curved=1;rounded=0;orthogonalLoop=1;jettySize=auto;html=1;entryX=0;entryY=0.5;entryDx=0;entryDy=0;fontSize=7;" parent="1" source="L62SuwqkSCq3n70ToQN--81" target="qoWVHKTnKnU8L6EQ_5EU-16" edge="1">
          <mxGeometry relative="1" as="geometry" />
        </mxCell>
        <mxCell id="L62SuwqkSCq3n70ToQN--81" value="action" style="rhombus;whiteSpace=wrap;html=1;fontSize=7;fillColor=default;" parent="1" vertex="1">
          <mxGeometry x="290" y="342" width="40" height="40" as="geometry" />
        </mxCell>
        <mxCell id="L62SuwqkSCq3n70ToQN--191" style="edgeStyle=orthogonalEdgeStyle;curved=1;rounded=0;orthogonalLoop=1;jettySize=auto;html=1;fontSize=7;" parent="1" source="L62SuwqkSCq3n70ToQN--99" target="L62SuwqkSCq3n70ToQN--188" edge="1">
          <mxGeometry relative="1" as="geometry" />
        </mxCell>
        <mxCell id="L62SuwqkSCq3n70ToQN--194" style="edgeStyle=orthogonalEdgeStyle;curved=1;rounded=0;orthogonalLoop=1;jettySize=auto;html=1;fontSize=7;" parent="1" source="L62SuwqkSCq3n70ToQN--99" target="L62SuwqkSCq3n70ToQN--100" edge="1">
          <mxGeometry relative="1" as="geometry" />
        </mxCell>
        <mxCell id="L62SuwqkSCq3n70ToQN--99" value="in wQ" style="rhombus;whiteSpace=wrap;html=1;fontSize=7;fillColor=default;" parent="1" vertex="1">
          <mxGeometry x="290" y="412" width="40" height="40" as="geometry" />
        </mxCell>
        <mxCell id="L62SuwqkSCq3n70ToQN--197" style="edgeStyle=orthogonalEdgeStyle;curved=1;rounded=0;orthogonalLoop=1;jettySize=auto;html=1;fontSize=7;" parent="1" source="L62SuwqkSCq3n70ToQN--100" target="L62SuwqkSCq3n70ToQN--114" edge="1">
          <mxGeometry relative="1" as="geometry" />
        </mxCell>
        <mxCell id="L62SuwqkSCq3n70ToQN--198" style="edgeStyle=orthogonalEdgeStyle;curved=1;rounded=0;orthogonalLoop=1;jettySize=auto;html=1;fontSize=7;" parent="1" source="L62SuwqkSCq3n70ToQN--100" target="L62SuwqkSCq3n70ToQN--172" edge="1">
          <mxGeometry relative="1" as="geometry" />
        </mxCell>
        <mxCell id="L62SuwqkSCq3n70ToQN--100" value="in rQ" style="rhombus;whiteSpace=wrap;html=1;fontSize=7;fillColor=default;" parent="1" vertex="1">
          <mxGeometry x="290" y="482" width="40" height="40" as="geometry" />
        </mxCell>
        <mxCell id="L62SuwqkSCq3n70ToQN--105" value="&lt;font style=&quot;font-size: 7px&quot;&gt;no&lt;/font&gt;" style="text;html=1;strokeColor=none;fillColor=none;align=center;verticalAlign=middle;whiteSpace=wrap;rounded=0;fontSize=10;" parent="1" vertex="1">
          <mxGeometry x="340" y="442" width="30" height="10" as="geometry" />
        </mxCell>
        <mxCell id="qoWVHKTnKnU8L6EQ_5EU-26" style="edgeStyle=orthogonalEdgeStyle;curved=1;rounded=0;orthogonalLoop=1;jettySize=auto;html=1;entryX=0.5;entryY=1;entryDx=0;entryDy=0;fontSize=7;" parent="1" source="L62SuwqkSCq3n70ToQN--114" target="L62SuwqkSCq3n70ToQN--172" edge="1">
          <mxGeometry relative="1" as="geometry" />
        </mxCell>
        <mxCell id="L62SuwqkSCq3n70ToQN--114" value="add to rQ" style="shape=process;whiteSpace=wrap;html=1;backgroundOutline=1;fontSize=7;fillColor=none;" parent="1" vertex="1">
          <mxGeometry x="285" y="552" width="50" height="20" as="geometry" />
        </mxCell>
        <mxCell id="L62SuwqkSCq3n70ToQN--120" value="" style="edgeStyle=orthogonalEdgeStyle;curved=1;rounded=0;orthogonalLoop=1;jettySize=auto;html=1;fontSize=7;" parent="1" source="L62SuwqkSCq3n70ToQN--117" target="L62SuwqkSCq3n70ToQN--119" edge="1">
          <mxGeometry relative="1" as="geometry" />
        </mxCell>
        <mxCell id="L62SuwqkSCq3n70ToQN--117" value="run task" style="shape=process;whiteSpace=wrap;html=1;backgroundOutline=1;fontSize=7;fillColor=none;" parent="1" vertex="1">
          <mxGeometry x="450" y="552" width="50" height="20" as="geometry" />
        </mxCell>
        <mxCell id="L62SuwqkSCq3n70ToQN--122" value="" style="edgeStyle=orthogonalEdgeStyle;curved=1;rounded=0;orthogonalLoop=1;jettySize=auto;html=1;fontSize=7;entryX=0.5;entryY=1;entryDx=0;entryDy=0;" parent="1" source="L62SuwqkSCq3n70ToQN--119" target="L62SuwqkSCq3n70ToQN--123" edge="1">
          <mxGeometry relative="1" as="geometry">
            <mxPoint x="575" y="447" as="targetPoint" />
          </mxGeometry>
        </mxCell>
        <mxCell id="L62SuwqkSCq3n70ToQN--119" value="" style="shape=tape;whiteSpace=wrap;html=1;fontSize=10;" parent="1" vertex="1">
          <mxGeometry x="620" y="552" width="30" height="20" as="geometry" />
        </mxCell>
        <mxCell id="L62SuwqkSCq3n70ToQN--128" value="" style="edgeStyle=orthogonalEdgeStyle;curved=1;rounded=0;orthogonalLoop=1;jettySize=auto;html=1;fontSize=7;" parent="1" source="L62SuwqkSCq3n70ToQN--123" target="L62SuwqkSCq3n70ToQN--126" edge="1">
          <mxGeometry relative="1" as="geometry" />
        </mxCell>
        <mxCell id="L62SuwqkSCq3n70ToQN--130" value="" style="edgeStyle=orthogonalEdgeStyle;curved=1;rounded=0;orthogonalLoop=1;jettySize=auto;html=1;fontSize=7;" parent="1" source="L62SuwqkSCq3n70ToQN--123" target="L62SuwqkSCq3n70ToQN--127" edge="1">
          <mxGeometry relative="1" as="geometry" />
        </mxCell>
        <mxCell id="L62SuwqkSCq3n70ToQN--123" value="success" style="rhombus;whiteSpace=wrap;html=1;fontSize=7;fillColor=default;" parent="1" vertex="1">
          <mxGeometry x="615" y="487" width="40" height="40" as="geometry" />
        </mxCell>
        <mxCell id="L62SuwqkSCq3n70ToQN--126" value="s1’’" style="ellipse;whiteSpace=wrap;html=1;" parent="1" vertex="1">
          <mxGeometry x="636.25" y="424" width="60" height="30" as="geometry" />
        </mxCell>
        <mxCell id="L62SuwqkSCq3n70ToQN--127" value="s1’’" style="ellipse;whiteSpace=wrap;html=1;" parent="1" vertex="1">
          <mxGeometry x="573.75" y="424" width="60" height="30" as="geometry" />
        </mxCell>
        <mxCell id="L62SuwqkSCq3n70ToQN--133" value="&lt;font style=&quot;font-size: 7px&quot;&gt;no&lt;/font&gt;" style="text;html=1;strokeColor=none;fillColor=none;align=center;verticalAlign=middle;whiteSpace=wrap;rounded=0;fontSize=10;" parent="1" vertex="1">
          <mxGeometry x="598.75" y="464" width="25" height="10" as="geometry" />
        </mxCell>
        <mxCell id="L62SuwqkSCq3n70ToQN--134" value="&lt;font style=&quot;font-size: 7px&quot;&gt;yes&lt;/font&gt;" style="text;html=1;strokeColor=none;fillColor=none;align=center;verticalAlign=middle;whiteSpace=wrap;rounded=0;fontSize=10;" parent="1" vertex="1">
          <mxGeometry x="646.5" y="464" width="25" height="10" as="geometry" />
        </mxCell>
        <mxCell id="L62SuwqkSCq3n70ToQN--135" value="&lt;font style=&quot;font-size: 7px&quot;&gt;del&lt;/font&gt;" style="text;html=1;strokeColor=none;fillColor=none;align=center;verticalAlign=middle;whiteSpace=wrap;rounded=0;fontSize=10;" parent="1" vertex="1">
          <mxGeometry x="666" y="403.5" width="25" height="10" as="geometry" />
        </mxCell>
        <mxCell id="L62SuwqkSCq3n70ToQN--136" value="&lt;font style=&quot;font-size: 7px&quot;&gt;retry&lt;/font&gt;" style="text;html=1;strokeColor=none;fillColor=none;align=center;verticalAlign=middle;whiteSpace=wrap;rounded=0;fontSize=10;" parent="1" vertex="1">
          <mxGeometry x="333" y="349" width="25" height="10" as="geometry" />
        </mxCell>
        <mxCell id="L62SuwqkSCq3n70ToQN--169" value="" style="edgeStyle=orthogonalEdgeStyle;curved=1;rounded=0;orthogonalLoop=1;jettySize=auto;html=1;fontSize=7;" parent="1" source="L62SuwqkSCq3n70ToQN--138" target="L62SuwqkSCq3n70ToQN--167" edge="1">
          <mxGeometry relative="1" as="geometry" />
        </mxCell>
        <mxCell id="L62SuwqkSCq3n70ToQN--138" value="del from wQ" style="shape=process;whiteSpace=wrap;html=1;backgroundOutline=1;fontSize=7;fillColor=none;" parent="1" vertex="1">
          <mxGeometry x="185" y="352" width="50" height="20" as="geometry" />
        </mxCell>
        <mxCell id="L62SuwqkSCq3n70ToQN--145" value="&lt;font style=&quot;font-size: 7px&quot;&gt;add&lt;/font&gt;" style="text;html=1;strokeColor=none;fillColor=none;align=center;verticalAlign=middle;whiteSpace=wrap;rounded=0;fontSize=10;" parent="1" vertex="1">
          <mxGeometry x="305.5" y="388" width="25" height="10" as="geometry" />
        </mxCell>
        <mxCell id="L62SuwqkSCq3n70ToQN--149" value="&lt;font style=&quot;font-size: 7px&quot;&gt;del&lt;/font&gt;" style="text;html=1;strokeColor=none;fillColor=none;align=center;verticalAlign=middle;whiteSpace=wrap;rounded=0;fontSize=10;" parent="1" vertex="1">
          <mxGeometry x="253" y="344" width="25" height="20" as="geometry" />
        </mxCell>
        <mxCell id="L62SuwqkSCq3n70ToQN--171" style="edgeStyle=orthogonalEdgeStyle;curved=1;rounded=0;orthogonalLoop=1;jettySize=auto;html=1;entryX=0;entryY=0.5;entryDx=0;entryDy=0;fontSize=7;exitX=0;exitY=0.5;exitDx=0;exitDy=0;" parent="1" source="L62SuwqkSCq3n70ToQN--161" target="L62SuwqkSCq3n70ToQN--80" edge="1">
          <mxGeometry relative="1" as="geometry" />
        </mxCell>
        <mxCell id="L62SuwqkSCq3n70ToQN--161" value="s1’" style="ellipse;whiteSpace=wrap;html=1;" parent="1" vertex="1">
          <mxGeometry x="180" y="547" width="60" height="30" as="geometry" />
        </mxCell>
        <mxCell id="L62SuwqkSCq3n70ToQN--185" style="edgeStyle=orthogonalEdgeStyle;curved=1;rounded=0;orthogonalLoop=1;jettySize=auto;html=1;entryX=0.5;entryY=0;entryDx=0;entryDy=0;fontSize=7;" parent="1" source="L62SuwqkSCq3n70ToQN--167" target="L62SuwqkSCq3n70ToQN--181" edge="1">
          <mxGeometry relative="1" as="geometry" />
        </mxCell>
        <mxCell id="L62SuwqkSCq3n70ToQN--200" style="edgeStyle=orthogonalEdgeStyle;curved=1;rounded=0;orthogonalLoop=1;jettySize=auto;html=1;entryX=0.5;entryY=0;entryDx=0;entryDy=0;fontSize=7;" parent="1" source="L62SuwqkSCq3n70ToQN--167" target="L62SuwqkSCq3n70ToQN--172" edge="1">
          <mxGeometry relative="1" as="geometry" />
        </mxCell>
        <mxCell id="L62SuwqkSCq3n70ToQN--167" value="in rQ" style="rhombus;whiteSpace=wrap;html=1;fontSize=7;fillColor=default;" parent="1" vertex="1">
          <mxGeometry x="190" y="412" width="40" height="40" as="geometry" />
        </mxCell>
        <mxCell id="L62SuwqkSCq3n70ToQN--172" value="done" style="shape=process;whiteSpace=wrap;html=1;backgroundOutline=1;fontSize=7;fillColor=none;" parent="1" vertex="1">
          <mxGeometry x="250" y="492" width="25" height="20" as="geometry" />
        </mxCell>
        <mxCell id="L62SuwqkSCq3n70ToQN--176" value="&lt;font style=&quot;font-size: 7px&quot;&gt;no&lt;/font&gt;" style="text;html=1;strokeColor=none;fillColor=none;align=center;verticalAlign=middle;whiteSpace=wrap;rounded=0;fontSize=10;" parent="1" vertex="1">
          <mxGeometry x="305" y="522" width="30" height="10" as="geometry" />
        </mxCell>
        <mxCell id="L62SuwqkSCq3n70ToQN--177" value="&lt;font style=&quot;font-size: 7px&quot;&gt;no&lt;/font&gt;" style="text;html=1;strokeColor=none;fillColor=none;align=center;verticalAlign=middle;whiteSpace=wrap;rounded=0;fontSize=10;" parent="1" vertex="1">
          <mxGeometry x="255" y="464" width="30" height="10" as="geometry" />
        </mxCell>
        <mxCell id="L62SuwqkSCq3n70ToQN--179" value="&lt;font style=&quot;font-size: 7px&quot;&gt;yes&lt;/font&gt;" style="text;html=1;strokeColor=none;fillColor=none;align=center;verticalAlign=middle;whiteSpace=wrap;rounded=0;fontSize=10;" parent="1" vertex="1">
          <mxGeometry x="205" y="464" width="30" height="10" as="geometry" />
        </mxCell>
        <mxCell id="L62SuwqkSCq3n70ToQN--186" value="" style="edgeStyle=orthogonalEdgeStyle;curved=1;rounded=0;orthogonalLoop=1;jettySize=auto;html=1;fontSize=7;" parent="1" source="L62SuwqkSCq3n70ToQN--181" target="L62SuwqkSCq3n70ToQN--161" edge="1">
          <mxGeometry relative="1" as="geometry" />
        </mxCell>
        <mxCell id="L62SuwqkSCq3n70ToQN--181" value="del from rQ" style="shape=process;whiteSpace=wrap;html=1;backgroundOutline=1;fontSize=7;fillColor=none;" parent="1" vertex="1">
          <mxGeometry x="185" y="492" width="50" height="20" as="geometry" />
        </mxCell>
        <mxCell id="L62SuwqkSCq3n70ToQN--187" value="&lt;font style=&quot;font-size: 7px&quot;&gt;yes&lt;/font&gt;" style="text;html=1;strokeColor=none;fillColor=none;align=center;verticalAlign=middle;whiteSpace=wrap;rounded=0;fontSize=10;" parent="1" vertex="1">
          <mxGeometry x="305" y="454" width="30" height="10" as="geometry" />
        </mxCell>
        <mxCell id="L62SuwqkSCq3n70ToQN--192" style="edgeStyle=orthogonalEdgeStyle;curved=1;rounded=0;orthogonalLoop=1;jettySize=auto;html=1;entryX=0;entryY=0.5;entryDx=0;entryDy=0;fontSize=7;" parent="1" source="L62SuwqkSCq3n70ToQN--188" target="L62SuwqkSCq3n70ToQN--117" edge="1">
          <mxGeometry relative="1" as="geometry" />
        </mxCell>
        <mxCell id="L62SuwqkSCq3n70ToQN--188" value="add to &amp;nbsp;wQ" style="shape=process;whiteSpace=wrap;html=1;backgroundOutline=1;fontSize=7;fillColor=none;" parent="1" vertex="1">
          <mxGeometry x="370" y="552" width="50" height="20" as="geometry" />
        </mxCell>
        <mxCell id="qoWVHKTnKnU8L6EQ_5EU-1" value="&lt;font style=&quot;font-size: 7px&quot;&gt;add&lt;/font&gt;" style="text;html=1;strokeColor=none;fillColor=none;align=center;verticalAlign=middle;whiteSpace=wrap;rounded=0;fontSize=10;" parent="1" vertex="1">
          <mxGeometry x="155" y="437" width="25" height="10" as="geometry" />
        </mxCell>
        <mxCell id="qoWVHKTnKnU8L6EQ_5EU-12" value="&lt;span style=&quot;font-size: 7px&quot;&gt;retry&lt;/span&gt;" style="text;html=1;strokeColor=none;fillColor=none;align=center;verticalAlign=middle;whiteSpace=wrap;rounded=0;fontSize=10;" parent="1" vertex="1">
          <mxGeometry x="573.75" y="403.5" width="25" height="10" as="geometry" />
        </mxCell>
        <mxCell id="qoWVHKTnKnU8L6EQ_5EU-34" value="" style="edgeStyle=orthogonalEdgeStyle;curved=1;rounded=0;orthogonalLoop=1;jettySize=auto;html=1;fontSize=7;entryX=0.5;entryY=0;entryDx=0;entryDy=0;" parent="1" source="qoWVHKTnKnU8L6EQ_5EU-16" target="L62SuwqkSCq3n70ToQN--117" edge="1">
          <mxGeometry relative="1" as="geometry">
            <mxPoint x="440" y="362" as="targetPoint" />
          </mxGeometry>
        </mxCell>
        <mxCell id="qoWVHKTnKnU8L6EQ_5EU-16" value="del from&amp;nbsp;rQ" style="shape=process;whiteSpace=wrap;html=1;backgroundOutline=1;fontSize=7;fillColor=none;" parent="1" vertex="1">
          <mxGeometry x="368.75" y="352" width="52.5" height="20" as="geometry" />
        </mxCell>
        <mxCell id="qoWVHKTnKnU8L6EQ_5EU-28" value="&lt;font style=&quot;font-size: 7px&quot;&gt;yes&lt;/font&gt;" style="text;html=1;strokeColor=none;fillColor=none;align=center;verticalAlign=middle;whiteSpace=wrap;rounded=0;fontSize=10;" parent="1" vertex="1">
          <mxGeometry x="272" y="487" width="30" height="10" as="geometry" />
        </mxCell>
        <mxCell id="qoWVHKTnKnU8L6EQ_5EU-46" value="&lt;font style=&quot;font-size: 7px&quot;&gt;add&lt;/font&gt;" style="text;html=1;strokeColor=none;fillColor=none;align=center;verticalAlign=middle;whiteSpace=wrap;rounded=0;fontSize=10;" parent="1" vertex="1">
          <mxGeometry x="310" y="268" width="25" height="10" as="geometry" />
        </mxCell>
        <mxCell id="PGMpMzwGWHUyb1UQOjFQ-4" value="message Resource {&lt;br&gt;  string kind = 1;&lt;br&gt;  string name = 2;&lt;br&gt;  string namespace = 3;&lt;br&gt;  enum Action {&lt;br&gt;    ADD = 0;&lt;br&gt;    DEL = 1;&lt;br&gt;    RETRY = 2;&lt;br&gt;  }&lt;br&gt;  Action action = 4;&lt;br&gt;}" style="text;whiteSpace=wrap;fontSize=7;fontColor=#D4D4D4;html=1;" vertex="1" parent="1">
          <mxGeometry x="278" y="120" width="80" height="102" as="geometry" />
        </mxCell>
      </root>
    </mxGraphModel>
  </diagram>
</mxfile>
